P3
20 11
255
221 235 255
221 235 255
221 235 255
221 235 255
221 235 255
221 235 255
221 235 255
218 231 251
211 222 240
214 229 249
212 227 248
221 235 255
218 232 252
215 229 247
221 235 255
221 235 255
221 235 255
221 235 255
221 235 255
221 235 255
222 236 255
222 236 255
222 236 255
222 236 255
222 236 255
222 236 255
214 227 245
134 122 117
138 144 160
122 135 166
134 146 172
171 180 191
157 168 181
157 168 181
174 183 194
217 230 248
222 236 255
222 236 255
222 236 255
222 236 255
181 197 218
189 204 224
182 197 218
190 205 226
188 203 224
186 201 222
165 169 181
119 106 100
133 146 159
107 117 128
162 162 166
161 170 181
156 168 181
156 168 181
161 170 181
179 185 193
187 200 220
184 199 220
184 200 218
184 198 218
110 93 132
104 117 149
145 149 180
116 136 168
123 141 164
93 135 149
88 92 102
116 111 115
194 208 227
179 189 207
178 179 181
173 176 181
171 175 181
171 175 181
172 176 181
178 179 181
128 159 137
97 126 132
107 107 147
106 119 137
75 97 163
122 119 154
138 153 179
115 135 157
65 98 125
96 107 132
103 84 126
111 124 171
188 208 235
182 200 222
116 123 124
139 140 140
136 138 141
137 138 140
137 135 139
126 118 126
91 112 146
95 108 129
120 127 138
112 131 143
118 161 181
123 132 142
81 92 94
77 98 98
94 110 119
96 101 107
112 148 134
118 126 145
103 137 158
128 114 138
103 96 101
103 104 109
89 97 100
92 94 109
103 107 113
98 99 111
79 93 135
82 69 112
120 136 151
114 156 161
99 146 147
105 149 146
141 158 182
85 103 122
83 111 162
123 143 167
71 93 97
104 93 110
128 132 149
98 139 57
114 125 136
95 97 99
94 96 99
96 98 99
97 100 104
109 114 132
116 129 152
72 94 127
83 112 138
93 129 139
59 113 86
111 151 131
112 163 117
125 143 167
88 107 143
147 167 186
122 150 157
120 66 83
129 111 127
131 143 163
115 126 141
86 106 113
48 94 92
81 85 90
97 104 115
112 120 153
75 72 136
95 109 127
113 129 150
131 148 172
113 126 139
119 140 121
83 140 53
126 146 163
131 150 174
133 157 168
134 165 169
118 134 152
125 140 159
80 80 176
86 89 168
101 121 136
83 107 109
152 173 169
130 143 156
81 75 145
72 52 152
108 122 140
126 143 166
132 149 173
126 86 93
130 71 72
128 145 164
126 146 163
132 152 174
117 131 166
60 39 144
84 89 139
111 139 149
44 106 99
87 102 142
128 146 170
124 141 156
126 141 133
118 133 149
119 133 158
130 147 174
130 146 171
133 151 175
134 150 175
112 103 118
109 96 109
122 136 158
132 151 176
133 152 174
88 90 146
69 31 123
80 72 126
66 106 96
31 115 63
108 137 145
125 142 165
128 146 167
114 130 147
124 141 161
137 153 177
153 167 193
141 158 181
131 148 171
145 129 134
